<?xml version="1.0" encoding="UTF-8" standalone="no"?><!DOCTYPE svg PUBLIC "-//W3C//DTD SVG 1.1//EN" "http://www.w3.org/Graphics/SVG/1.1/DTD/svg11.dtd"><svg width="100%" height="100%" viewBox="0 0 5559 1580" version="1.1" xmlns="http://www.w3.org/2000/svg" xmlns:xlink="http://www.w3.org/1999/xlink" xml:space="preserve" xmlns:serif="http://www.serif.com/" style="fill-rule:evenodd;clip-rule:evenodd;stroke-linejoin:round;stroke-miterlimit:2;"><path d="M4628.02,144.177c-0,76.689 -62.167,138.867 -138.867,138.867c-76.689,-0 -138.855,-62.178 -138.855,-138.867c-0,-76.689 62.166,-138.866 138.855,-138.866c76.7,-0 138.867,62.177 138.867,138.866" style="fill:#00f;fill-rule:nonzero;"/><path d="M5518.99,1148.73c-25.322,-33.323 -57.789,-59.289 -97.311,-77.767c-39.522,-18.545 -81.478,-32.745 -125.922,-42.667c-44.445,-9.844 -86.111,-19.4 -125,-28.678c-38.945,-9.266 -71.056,-22.255 -96.378,-38.877c-25.333,-16.7 -37.956,-40.456 -37.956,-71.345c0,-23.4 7.423,-43.8 22.256,-61.144c14.844,-17.267 34.244,-30.822 58.356,-40.734c24.044,-9.844 50.3,-14.766 78.7,-14.766c43.233,-0 82.4,7.989 117.644,24.044c35.167,16.045 62,44.445 80.544,85.178l138.912,-79.622c-19.767,-34.6 -45.378,-65.778 -76.845,-93.522c-31.533,-27.756 -69.2,-49.378 -113,-64.856c-43.878,-15.411 -94.178,-23.111 -150.967,-23.111c-64.211,-0 -121.644,11.7 -172.3,35.167c-50.577,23.477 -90.455,55.866 -119.422,97.244c-29.044,41.378 -43.522,87.967 -43.522,139.833c0,58.067 12.622,103.734 37.956,137.045c25.322,33.389 57.433,59.011 96.311,76.911c38.889,17.911 80.622,31.822 125.066,41.667c44.445,9.922 86.4,19.477 125.923,28.677c39.522,9.278 71.911,21.978 97.244,38.034c25.322,16.044 38.022,40.166 38.022,72.189c0,27.188 -8.133,50.022 -24.111,68.566c-16.055,18.478 -37.955,32.745 -65.778,42.589c-27.755,9.922 -59.577,14.845 -95.389,14.845c-50.655,-0 -94.455,-9.567 -131.488,-28.756c-37.023,-19.122 -67.345,-51.511 -90.745,-97.244l-138.978,75.988c35.811,67.923 85.178,118.567 148.178,151.889c63,33.311 136.478,50.011 220.456,50.011c64.211,0 123.489,-11.411 177.855,-34.311c54.289,-22.833 97.811,-55.222 130.556,-97.177c32.678,-42.023 49.089,-92.034 49.089,-150.1c-0,-56.789 -12.7,-101.878 -37.956,-135.2" style="fill:#031130;fill-rule:nonzero;"/><rect x="4398.91" y="620.864" width="180.489" height="944.656" style="fill:#031130;"/><path d="M1171.42,1026.25c6.078,-46.489 20.767,-88.1 44.011,-124.766c23.245,-36.667 54.4,-66.056 93.545,-88.034c39.144,-22.044 83.722,-32.989 133.955,-32.989c50.089,0 94.389,10.378 132.956,31.156c38.511,20.767 69.033,49.522 91.711,86.189c22.6,36.744 35.111,79.555 37.578,128.444l-533.756,0Zm711.722,42.178c0,-83.155 -17.8,-158.678 -53.266,-226.578c-35.467,-67.822 -85.911,-121.655 -151.256,-161.355c-65.5,-39.778 -143.422,-59.634 -233.922,-59.634c-90.511,0 -169.633,21.123 -237.533,63.3c-67.823,42.178 -120.734,98.978 -158.678,170.556c-37.867,71.567 -56.8,150.122 -56.8,235.689c-0,91.767 20.422,173.367 61.389,244.933c40.978,71.5 97.5,127.745 169.711,168.711c72.133,40.978 152.811,61.467 242.111,61.467c89.233,-0 168.433,-19.922 237.522,-59.622c69.1,-39.711 123.856,-98.134 164.2,-175.145l-137.555,-71.566c-26.923,50.155 -63.667,87.111 -110.078,110.989c-46.489,23.811 -97.856,35.744 -154.089,35.744c-62.378,-0 -117.133,-14.978 -164.189,-44.933c-47.055,-29.945 -83.155,-70.289 -108.167,-121.089c-15.044,-30.456 -24.722,-63.089 -28.966,-98.134l719.566,0l0,-73.333Z" style="fill:#031130;fill-rule:nonzero;"/><path d="M617.309,1358.35c-43.545,25.178 -92.345,37.733 -146.389,37.733c-53.978,0 -102.778,-13.755 -146.389,-41.422c-43.555,-27.589 -78.589,-64.111 -104.978,-109.578c-26.377,-45.389 -39.566,-95.755 -39.566,-151c-0,-56.455 13.189,-107.389 39.566,-152.844c26.389,-45.4 61.423,-81.922 104.978,-109.511c43.611,-27.667 92.411,-41.489 146.389,-41.489c54.044,-0 102.844,12.622 146.389,37.733c43.622,25.245 78.867,62.978 105.889,113.267l149.155,-82.845c-41.7,-81 -98.222,-140.577 -169.366,-178.666c-71.211,-38.011 -148.589,-57.656 -232.067,-58.867c-65.044,0 -126.111,12.278 -183.2,36.811c-57.1,24.545 -107.1,58.656 -150.078,102.211c-42.989,43.611 -76.389,93.623 -100.366,150.078c-23.9,56.456 -35.889,117.878 -35.889,184.122c-0,63.834 11.989,124.611 35.889,182.345c23.977,57.666 57.377,108.311 100.366,151.855c42.978,43.623 92.978,77.378 150.078,101.278c57.089,23.978 118.156,35.967 183.2,35.967c83.478,-0 160.856,-19.367 232.067,-58.022c71.144,-38.656 127.666,-97.878 169.366,-177.667l-149.155,-82.911c-27.022,49.155 -62.267,86.244 -105.889,111.422" style="fill:#031130;fill-rule:nonzero;"/><path d="M3893.97,1246.31c-26.356,45.289 -62.389,81.678 -108.244,109.156c-45.856,27.489 -96.934,41.267 -153.167,41.267c-56.245,-0 -107.045,-13.778 -152.267,-41.267c-45.289,-27.478 -81.033,-63.867 -107.322,-109.156c-26.278,-45.222 -39.422,-95.377 -39.422,-150.422c-0,-55.033 13.144,-105.767 39.422,-152.255c26.289,-46.423 62.033,-83.445 107.322,-110.923c45.222,-27.555 96.022,-41.333 152.267,-41.333c56.233,0 107.311,13.778 153.167,41.333c45.855,27.478 81.888,64.5 108.244,110.923c26.211,46.488 39.422,97.222 39.422,152.255c0,55.045 -13.211,105.2 -39.422,150.422m39.422,-1014.37l-1.344,528.277c-30.445,-33.922 -66.689,-62.677 -108.734,-86.2c-61.177,-34.266 -127.811,-51.366 -199.944,-51.366c-90.511,-0 -170.911,20.489 -241.211,61.4c-70.3,41.044 -125.622,97.222 -166.033,168.789c-40.345,71.577 -60.478,152.544 -60.478,243.044c-0,85.633 20.766,163.922 62.311,234.856c41.622,70.933 98.422,127.733 170.633,170.555c72.134,42.811 153.456,64.222 243.967,64.222c90.5,0 171.755,-20.488 243.955,-61.466c72.145,-40.978 129.3,-97.222 171.545,-168.789c42.189,-71.5 63.244,-151.345 63.244,-239.378l0,-863.944l-177.911,-0Z" style="fill:#031130;fill-rule:nonzero;"/><rect id="Artboard1" x="0" y="0" width="5558.33" height="1579.17" style="fill:none;"/><path d="M2919.97,857.006c-35.156,-72.122 -87.2,-129.522 -156.2,-172.144c-69,-42.689 -153.733,-64 -254.044,-64c-99.156,-0 -182.589,21.311 -250.289,64c-67.767,42.622 -119.234,100.022 -154.311,172.144c-35.156,72.189 -52.689,153.378 -52.689,243.689l-0,464.822l182.5,0l-0,-445.978c-0,-57.7 10.366,-111.044 31.022,-159.966c20.733,-48.934 51.467,-88.145 92.278,-117.645c40.733,-29.422 91.255,-44.211 151.489,-44.211c62.688,0 114.811,14.789 156.188,44.211c41.389,29.5 72.412,68.711 93.145,117.645c20.655,48.922 31.022,102.266 31.022,159.966l0,445.978l182.589,0l-0,-466.711c-0,-89.011 -17.622,-169.611 -52.7,-241.8" style="fill:#031130;fill-rule:nonzero;"/></svg>