<?xml version="1.0" encoding="UTF-8" standalone="no"?><!DOCTYPE svg PUBLIC "-//W3C//DTD SVG 1.1//EN" "http://www.w3.org/Graphics/SVG/1.1/DTD/svg11.dtd"><svg width="100%" height="100%" viewBox="0 0 634 180" version="1.1" xmlns="http://www.w3.org/2000/svg" xmlns:xlink="http://www.w3.org/1999/xlink" xml:space="preserve" xmlns:serif="http://www.serif.com/" style="fill-rule:evenodd;clip-rule:evenodd;stroke-linejoin:round;stroke-miterlimit:2;"><path d="M100.824,78.095c-1.598,-1.577 -2.472,-3.705 -2.472,-5.983c0,-2.277 0.874,-4.38 2.472,-5.982c1.598,-1.577 3.72,-2.478 5.968,-2.478c2.247,0 4.369,0.876 5.967,2.453c3.296,3.304 3.296,8.66 0,11.965c-1.598,1.601 -3.72,2.478 -5.992,2.478c-2.273,-0 -4.37,-0.877 -5.968,-2.478l0.025,0.025Z" style="fill:#005ca9;fill-rule:nonzero;"/><path d="M77.902,101.072c1.598,1.627 2.472,3.755 2.472,5.983c-0,2.227 -0.874,4.355 -2.472,5.957c-1.598,1.602 -3.72,2.478 -5.968,2.478c-2.247,-0 -4.369,-0.876 -5.967,-2.478c-1.573,-1.602 -2.472,-3.73 -2.472,-5.982c0,-2.253 0.874,-4.381 2.447,-5.983c1.598,-1.602 3.72,-2.478 5.967,-2.478c2.248,0 4.345,0.876 5.943,2.478l0.05,0.025Z" style="fill:#005ca9;fill-rule:nonzero;"/><path d="M77.901,66.154c1.598,1.551 2.472,3.679 2.472,5.957c0,2.278 -0.874,4.405 -2.472,5.982c-1.573,1.602 -3.695,2.478 -5.942,2.478c-2.247,0 -4.395,-0.876 -5.968,-2.478c-1.598,-1.577 -2.472,-3.704 -2.472,-5.957c0,-2.253 0.874,-4.406 2.472,-5.982c1.573,-1.602 3.696,-2.478 5.943,-2.478c2.247,-0 4.369,0.876 5.967,2.478Z" style="fill:#005ca9;fill-rule:nonzero;"/><path d="M100.824,113.012c-1.598,-1.577 -2.472,-3.704 -2.472,-5.957c0,-2.253 0.874,-4.406 2.497,-5.983c1.573,-1.602 3.67,-2.477 5.943,-2.477c2.272,-0 4.369,0.875 5.967,2.478c1.573,1.576 2.472,3.704 2.472,5.982c-0,2.278 -0.874,4.38 -2.497,5.982c-1.548,1.602 -3.67,2.478 -5.942,2.478c-2.273,0 -4.395,-0.876 -5.968,-2.478l0,-0.025Z" style="fill:#005ca9;fill-rule:nonzero;"/><path d="M134.83,124c1.473,1.477 2.297,3.454 2.297,5.582c0,2.127 -0.824,4.105 -2.322,5.581c-1.498,1.477 -3.47,2.303 -5.543,2.303c-2.072,0 -4.095,-0.826 -5.568,-2.303c-1.473,-1.476 -2.297,-3.454 -2.297,-5.581c0,-2.128 0.799,-4.08 2.297,-5.582c1.498,-1.502 3.471,-2.303 5.568,-2.303c2.098,0 4.07,0.826 5.568,2.303Z" style="fill:#2e95cf;fill-rule:nonzero;"/><path d="M55.006,135.164c-1.499,1.476 -3.471,2.302 -5.543,2.302c-2.073,0 -4.07,-0.826 -5.568,-2.302c-1.473,-1.502 -2.297,-3.479 -2.297,-5.582c-0.001,-2.103 0.799,-4.08 2.297,-5.582c1.498,-1.502 3.47,-2.328 5.568,-2.328c2.097,0 4.044,0.826 5.543,2.303c1.498,1.477 2.322,3.479 2.322,5.582c-0,2.103 -0.824,4.08 -2.322,5.582l-0,0.025Z" style="fill:#2e95cf;fill-rule:nonzero;"/><path d="M43.895,55.167c-1.473,-1.477 -2.297,-3.454 -2.297,-5.557c-0.001,-2.102 0.824,-4.105 2.297,-5.582c1.498,-1.501 3.47,-2.302 5.568,-2.302c2.097,-0 4.095,0.826 5.568,2.302c1.473,1.502 2.297,3.48 2.297,5.582c-0,2.103 -0.824,4.08 -2.297,5.582c-1.499,1.477 -3.471,2.303 -5.568,2.303c-2.098,-0 -4.07,-0.826 -5.568,-2.303l-0,-0.025Z" style="fill:#2e95cf;fill-rule:nonzero;"/><path d="M121.397,49.585c0,-2.102 0.824,-4.08 2.297,-5.582c1.473,-1.476 3.471,-2.303 5.568,-2.303c2.098,0 4.07,0.827 5.568,2.303c1.473,1.477 2.297,3.455 2.297,5.582c0,2.127 -0.824,4.105 -2.322,5.582c-1.473,1.477 -3.445,2.303 -5.543,2.303c-2.097,-0 -4.07,-0.826 -5.568,-2.303c-1.473,-1.502 -2.297,-3.48 -2.297,-5.582Z" style="fill:#2e95cf;fill-rule:nonzero;"/><path d="M71.634,38.321c3.721,0 6.742,3.029 6.742,6.759c-0,3.729 -3.021,6.758 -6.742,6.758c-3.72,-0 -6.742,-3.029 -6.742,-6.758c0.001,-3.73 3.022,-6.759 6.742,-6.759Z" style="fill:#2e95cf;fill-rule:nonzero;"/><path d="M100.2,45.08c-0,-3.73 3.02,-6.759 6.741,-6.759c3.72,0 6.742,3.029 6.742,6.759c-0.001,3.729 -3.022,6.758 -6.742,6.758c-3.721,-0 -6.741,-3.029 -6.741,-6.758Z" style="fill:#2e95cf;fill-rule:nonzero;"/><path d="M106.965,140.87c-3.72,0 -6.741,-3.028 -6.741,-6.757c-0,-3.73 3.021,-6.759 6.741,-6.759c3.721,0 6.742,3.029 6.742,6.759c0,3.729 -3.021,6.757 -6.742,6.757Z" style="fill:#2e95cf;fill-rule:nonzero;"/><path d="M78.376,134.087c-0,3.73 -3.021,6.758 -6.742,6.758c-3.72,0 -6.742,-3.028 -6.742,-6.758c0.001,-3.729 3.022,-6.758 6.742,-6.758c3.721,0 6.742,3.029 6.742,6.758Z" style="fill:#2e95cf;fill-rule:nonzero;"/><path d="M38.226,107.28c0,-3.73 3.022,-6.758 6.742,-6.758c3.72,-0 6.742,3.028 6.742,6.758c-0,3.729 -3.022,6.758 -6.742,6.758c-3.72,-0 -6.742,-3.029 -6.742,-6.758Z" style="fill:#2e95cf;fill-rule:nonzero;"/><path d="M44.968,78.645c-3.72,0 -6.742,-3.028 -6.742,-6.758c0,-3.729 3.022,-6.758 6.742,-6.758c3.72,-0 6.742,3.029 6.742,6.758c-0,3.73 -3.022,6.758 -6.742,6.758Z" style="fill:#2e95cf;fill-rule:nonzero;"/><path d="M140.524,71.887c-0,3.73 -3.022,6.758 -6.742,6.758c-3.72,0 -6.742,-3.028 -6.742,-6.758c0,-3.729 3.022,-6.758 6.742,-6.758c3.72,-0 6.742,3.029 6.742,6.758Z" style="fill:#2e95cf;fill-rule:nonzero;"/><path d="M133.758,100.522c3.72,-0 6.741,3.028 6.741,6.758c0,3.729 -3.021,6.758 -6.741,6.758c-3.721,-0 -6.742,-3.029 -6.742,-6.758c0,-3.73 3.021,-6.758 6.742,-6.758Z" style="fill:#2e95cf;fill-rule:nonzero;"/><path d="M142.646,36.144c-1.373,-1.377 -2.147,-3.229 -2.147,-5.181c-0,-1.953 0.749,-3.805 2.147,-5.182c1.399,-1.376 3.221,-2.127 5.169,-2.127c1.947,-0 3.77,0.751 5.168,2.127c2.847,2.854 2.847,7.509 0,10.363c-1.398,1.376 -3.221,2.152 -5.168,2.152c-1.948,0 -3.795,-0.776 -5.169,-2.152Z" style="fill:#9ec8e6;fill-rule:nonzero;"/><path d="M36.081,25.831c1.373,1.352 2.147,3.204 2.147,5.157c-0,1.952 -0.774,3.804 -2.147,5.181c-1.349,1.376 -3.196,2.152 -5.169,2.152c-1.973,0 -3.795,-0.75 -5.169,-2.152c-1.373,-1.377 -2.147,-3.204 -2.147,-5.181c0,-1.978 0.749,-3.805 2.147,-5.182c1.374,-1.376 3.197,-2.152 5.169,-2.152c1.973,-0 3.795,0.776 5.169,2.152l-0,0.025Z" style="fill:#9ec8e6;fill-rule:nonzero;"/><path d="M36.081,142.998c1.373,1.377 2.122,3.229 2.122,5.181c-0,1.953 -0.749,3.805 -2.122,5.181c-1.399,1.402 -3.246,2.153 -5.194,2.153c-1.948,-0 -3.77,-0.751 -5.168,-2.153c-1.374,-1.401 -2.123,-3.228 -2.123,-5.181c0,-1.952 0.749,-3.779 2.123,-5.181c1.398,-1.377 3.22,-2.153 5.168,-2.153c1.948,0 3.795,0.751 5.169,2.153l0.025,-0Z" style="fill:#9ec8e6;fill-rule:nonzero;"/><path d="M152.985,142.998c1.398,1.377 2.147,3.204 2.147,5.181c0,1.978 -0.749,3.805 -2.122,5.181c-1.399,1.377 -3.246,2.153 -5.169,2.153c-1.922,-0 -3.77,-0.751 -5.168,-2.153c-1.374,-1.401 -2.148,-3.228 -2.148,-5.181c0,-1.952 0.749,-3.779 2.148,-5.181c1.398,-1.377 3.221,-2.153 5.168,-2.153c1.948,0 3.77,0.751 5.169,2.153l-0.025,-0Z" style="fill:#9ec8e6;fill-rule:nonzero;"/><path d="M111.036,30.862c-1.173,-1.151 -1.797,-2.703 -1.797,-4.38c-0,-1.677 0.649,-3.229 1.797,-4.38c1.174,-1.177 2.722,-1.802 4.37,-1.802c1.648,-0 3.196,0.65 4.369,1.802c1.174,1.176 1.823,2.728 1.823,4.38c0,1.652 -0.649,3.204 -1.798,4.38c-1.173,1.177 -2.746,1.828 -4.369,1.828c-1.623,-0.001 -3.196,-0.651 -4.37,-1.828l-0.025,0Z" style="fill:#9ec8e6;fill-rule:nonzero;"/><path d="M57.129,26.482c-0,-3.404 2.771,-6.182 6.192,-6.182c3.421,-0 6.167,2.778 6.167,6.182c0,3.404 -2.771,6.208 -6.167,6.208c-3.396,-0 -6.192,-2.779 -6.192,-6.208Z" style="fill:#9ec8e6;fill-rule:nonzero;"/><path d="M111.036,157.065c-1.173,-1.151 -1.797,-2.703 -1.797,-4.38c-0,-1.678 0.649,-3.229 1.797,-4.381c1.174,-1.176 2.722,-1.802 4.37,-1.802c1.648,0 3.196,0.651 4.369,1.802c1.174,1.177 1.823,2.728 1.823,4.381c0,1.652 -0.649,3.203 -1.798,4.38c-1.173,1.176 -2.746,1.827 -4.369,1.827c-1.623,0 -3.196,-0.651 -4.37,-1.827l-0.025,0Z" style="fill:#9ec8e6;fill-rule:nonzero;"/><path d="M57.129,152.685c-0,-3.405 2.771,-6.183 6.192,-6.183c3.421,0 6.167,2.778 6.167,6.183c0,3.404 -2.771,6.207 -6.167,6.207c-3.396,0 -6.192,-2.778 -6.192,-6.207Z" style="fill:#9ec8e6;fill-rule:nonzero;"/><path d="M30.786,67.857c-1.148,1.176 -2.696,1.802 -4.369,1.802c-1.673,0 -3.221,-0.651 -4.37,-1.802c-1.173,-1.176 -1.798,-2.728 -1.798,-4.38c0,-1.652 0.65,-3.204 1.798,-4.38c1.174,-1.177 2.722,-1.828 4.37,-1.828c1.648,0 3.196,0.651 4.369,1.803c1.174,1.176 1.823,2.753 1.823,4.38c0,1.627 -0.649,3.204 -1.823,4.38l0,0.025Z" style="fill:#9ec8e6;fill-rule:nonzero;"/><path d="M26.417,121.898c-3.396,-0 -6.168,-2.779 -6.168,-6.208c0,-3.429 2.772,-6.182 6.168,-6.182c3.395,-0 6.192,2.778 6.192,6.182c0,3.404 -2.772,6.208 -6.192,6.208Z" style="fill:#9ec8e6;fill-rule:nonzero;"/><path d="M156.68,67.857c-1.149,1.176 -2.697,1.802 -4.37,1.802c-1.673,0 -3.221,-0.651 -4.37,-1.802c-1.173,-1.176 -1.797,-2.728 -1.797,-4.38c-0,-1.652 0.649,-3.204 1.797,-4.38c1.174,-1.177 2.722,-1.828 4.37,-1.828c1.648,0 3.196,0.651 4.37,1.803c1.173,1.176 1.822,2.753 1.822,4.38c0,1.627 -0.649,3.204 -1.822,4.38l-0,0.025Z" style="fill:#9ec8e6;fill-rule:nonzero;"/><path d="M152.31,121.898c-3.396,-0 -6.167,-2.779 -6.167,-6.208c-0,-3.429 2.771,-6.182 6.167,-6.182c3.396,-0 6.192,2.778 6.192,6.182c0,3.404 -2.772,6.208 -6.192,6.208Z" style="fill:#9ec8e6;fill-rule:nonzero;"/><path d="M96.18,172.409c-0,3.729 -3.022,6.758 -6.742,6.758c-3.72,-0 -6.741,-3.029 -6.741,-6.758c-0,-3.73 3.021,-6.759 6.741,-6.759c3.72,0 6.742,3.029 6.742,6.759Z" style="fill:#9ec8e6;fill-rule:nonzero;"/><path d="M82.646,6.758c-0,-3.729 3.021,-6.758 6.741,-6.758c3.721,0 6.742,3.029 6.742,6.758c-0,3.73 -3.021,6.758 -6.742,6.758c-3.72,0 -6.741,-3.028 -6.741,-6.758Z" style="fill:#9ec8e6;fill-rule:nonzero;"/><path d="M13.483,89.583c0,3.73 -3.021,6.759 -6.741,6.759c-3.721,-0 -6.742,-3.029 -6.742,-6.759c0,-3.729 3.021,-6.758 6.742,-6.758c3.72,0 6.741,3.029 6.741,6.758Z" style="fill:#9ec8e6;fill-rule:nonzero;"/><path d="M178.726,89.583c-0,3.73 -3.021,6.759 -6.742,6.759c-3.72,-0 -6.742,-3.029 -6.742,-6.759c0,-3.729 3.022,-6.758 6.742,-6.758c3.721,0 6.742,3.029 6.742,6.758Z" style="fill:#9ec8e6;fill-rule:nonzero;"/><path d="M630.588,93.613c-1.851,-2.428 -4.196,-4.305 -7.067,-5.656c-2.871,-1.352 -5.917,-2.378 -9.138,-3.104c-3.22,-0.726 -6.241,-1.402 -9.066,-2.078c-2.821,-0.675 -5.142,-1.627 -6.988,-2.828c-1.85,-1.202 -2.75,-2.929 -2.75,-5.182c0,-1.702 0.55,-3.178 1.625,-4.455c1.075,-1.251 2.471,-2.252 4.221,-2.953c1.746,-0.726 3.646,-1.077 5.717,-1.077c3.146,0 5.966,0.576 8.537,1.753c2.55,1.176 4.496,3.228 5.846,6.182l10.063,-5.782c-1.425,-2.503 -3.296,-4.781 -5.571,-6.808c-2.296,-2.028 -5.017,-3.58 -8.188,-4.706c-3.171,-1.126 -6.816,-1.677 -10.937,-1.677c-4.646,0 -8.813,0.851 -12.484,2.553c-3.67,1.702 -6.566,4.055 -8.666,7.058c-2.096,3.004 -3.146,6.383 -3.146,10.163c-0,4.23 0.925,7.534 2.746,9.962c1.85,2.428 4.171,4.28 6.991,5.582c2.821,1.301 5.846,2.303 9.067,3.028c3.221,0.726 6.267,1.427 9.138,2.078c2.87,0.676 5.216,1.602 7.041,2.753c1.846,1.176 2.746,2.929 2.746,5.256c0,1.978 -0.6,3.63 -1.75,4.982c-1.171,1.351 -2.746,2.377 -4.767,3.103c-2.025,0.726 -4.32,1.077 -6.916,1.077c-3.671,-0 -6.842,-0.701 -9.538,-2.078c-2.696,-1.401 -4.896,-3.754 -6.591,-7.059l-10.088,5.532c2.596,4.931 6.167,8.611 10.738,11.038c4.566,2.428 9.887,3.63 15.979,3.63c4.641,0 8.962,-0.826 12.908,-2.503c3.946,-1.652 7.092,-4.005 9.463,-7.059c2.37,-3.053 3.57,-6.683 3.57,-10.913c0,-4.23 -0.925,-7.409 -2.745,-9.837l-0,0.025Z" style="fill:#1a2041;fill-rule:nonzero;"/><rect x="549.363" y="55.242" width="13.083" height="68.658" style="fill:#1a2041;fill-rule:nonzero;"/><path d="M442.121,72.413c-2.546,-5.232 -6.317,-9.412 -11.333,-12.515c-4.996,-3.104 -11.138,-4.656 -18.428,-4.656c-7.291,0 -13.234,1.552 -18.152,4.656c-4.919,3.103 -8.64,7.258 -11.186,12.515c-2.547,5.256 -3.821,11.138 -3.821,17.721l0,33.791l13.234,0l-0,-32.414c-0,-4.205 0.749,-8.06 2.247,-11.639c1.498,-3.555 3.72,-6.408 6.692,-8.561c2.946,-2.127 6.616,-3.204 10.986,-3.204c4.369,0 8.315,1.077 11.336,3.204c2.996,2.153 5.242,5.006 6.742,8.561c1.495,3.554 2.245,7.434 2.245,11.639l0,32.414l13.234,0l-0,-33.916c-0,-6.458 -1.271,-12.34 -3.821,-17.572l0.025,-0.025Z" style="fill:#1a2041;fill-rule:nonzero;"/><path d="M366.941,87.781c0,-6.032 -1.298,-11.538 -3.87,-16.47c-2.572,-4.931 -6.217,-8.835 -10.961,-11.739c-4.744,-2.903 -10.412,-4.33 -16.954,-4.33c-6.542,0 -12.31,1.527 -17.228,4.605c-4.919,3.054 -8.765,7.184 -11.511,12.39c-2.747,5.207 -4.12,10.914 -4.12,17.121c0,6.683 1.473,12.59 4.444,17.797c2.972,5.206 7.067,9.286 12.31,12.265c5.219,2.978 11.086,4.48 17.553,4.48c6.467,0 12.21,-1.452 17.228,-4.33c5.019,-2.879 8.989,-7.134 11.911,-12.741l-9.963,-5.206c-1.947,3.654 -4.619,6.333 -7.99,8.06c-3.371,1.727 -7.091,2.603 -11.161,2.603c-4.519,-0 -8.489,-1.076 -11.91,-3.254c-3.421,-2.178 -6.017,-5.106 -7.84,-8.811c-1.099,-2.202 -1.798,-4.58 -2.098,-7.133l52.185,-0.001l0,-5.331l-0.025,0.025Zm-51.61,-3.054c0.449,-3.379 1.498,-6.407 3.196,-9.06c1.698,-2.654 3.945,-4.806 6.791,-6.408c2.847,-1.602 6.067,-2.403 9.713,-2.403c3.646,-0 6.842,0.751 9.638,2.253c2.796,1.501 4.994,3.604 6.642,6.257c1.648,2.679 2.547,5.782 2.721,9.337l-38.701,-0l-0,0.024Z" style="fill:#1a2041;fill-rule:nonzero;"/><path d="M275.131,108.857c-3.146,1.827 -6.691,2.753 -10.611,2.753c-3.92,0 -7.441,-1.001 -10.612,-3.004c-3.146,-2.002 -5.693,-4.655 -7.616,-7.959c-1.922,-3.304 -2.871,-6.959 -2.871,-10.989c-0,-4.029 0.949,-7.809 2.871,-11.113c1.923,-3.304 4.445,-5.957 7.616,-7.96c3.171,-2.002 6.692,-3.003 10.612,-3.003c3.92,-0 7.465,0.926 10.611,2.753c3.171,1.827 5.718,4.58 7.691,8.235l10.811,-6.032c-3.021,-5.883 -7.116,-10.213 -12.285,-12.991c-5.168,-2.753 -10.786,-4.18 -16.828,-4.28c-4.72,-0 -9.139,0.901 -13.284,2.678c-4.145,1.777 -7.765,4.255 -10.886,7.434c-3.121,3.179 -5.543,6.808 -7.266,10.913c-1.723,4.105 -2.597,8.561 -2.597,13.391c0,4.831 0.874,9.062 2.597,13.267c1.748,4.18 4.17,7.884 7.266,11.038c3.121,3.179 6.741,5.632 10.886,7.359c4.145,1.752 8.564,2.603 13.284,2.603c6.042,0 11.66,-1.402 16.828,-4.205c5.169,-2.804 9.264,-7.109 12.285,-12.916l-10.811,-6.032c-1.948,3.579 -4.519,6.258 -7.691,8.11l0,-0.05Z" style="fill:#1a2041;fill-rule:nonzero;"/><path d="M515.608,26.983l-0.1,38.396c-2.2,-2.453 -4.846,-4.555 -7.891,-6.257c-4.446,-2.504 -9.263,-3.73 -14.509,-3.73c-6.566,0 -12.383,1.502 -17.475,4.455c-5.095,2.979 -9.116,7.059 -12.037,12.265c-2.921,5.206 -4.396,11.088 -4.396,17.672c0,6.232 1.5,11.914 4.521,17.07c3.021,5.156 7.142,9.286 12.383,12.39c5.221,3.104 11.138,4.681 17.704,4.681c6.567,0 12.459,-1.502 17.705,-4.48c5.216,-2.979 9.362,-7.059 12.433,-12.265c3.046,-5.207 4.596,-11.014 4.596,-17.396l-0,-62.801l-12.934,-0Zm-2.85,73.739c-1.921,3.304 -4.516,5.932 -7.837,7.934c-3.321,2.003 -7.042,3.004 -11.113,3.004c-4.07,0 -7.766,-1.001 -11.037,-3.004c-3.296,-2.002 -5.867,-4.63 -7.788,-7.934c-1.9,-3.279 -2.846,-6.934 -2.846,-10.938c0,-4.005 0.946,-7.685 2.846,-11.064c1.896,-3.379 4.492,-6.057 7.788,-8.06c3.271,-2.002 6.966,-3.003 11.037,-3.003c4.071,-0 7.792,1.001 11.113,3.003c3.321,2.003 5.941,4.681 7.837,8.06c1.9,3.379 2.85,7.059 2.85,11.064c0,4.004 -0.95,7.659 -2.85,10.938Z" style="fill:#1a2041;fill-rule:nonzero;"/></svg>