<?xml version="1.0" encoding="UTF-8" standalone="no"?><!DOCTYPE svg PUBLIC "-//W3C//DTD SVG 1.1//EN" "http://www.w3.org/Graphics/SVG/1.1/DTD/svg11.dtd"><svg width="100%" height="100%" viewBox="0 0 462 95" version="1.1" xmlns="http://www.w3.org/2000/svg" xmlns:xlink="http://www.w3.org/1999/xlink" xml:space="preserve" xmlns:serif="http://www.serif.com/" style="fill-rule:evenodd;clip-rule:evenodd;stroke-linejoin:round;stroke-miterlimit:2;"><rect id="Artboard1" x="0" y="0" width="461.833" height="94.208" style="fill:none;"/><path d="M151.375,91.083c-4.417,-1.916 -7.875,-4.583 -10.417,-7.916c-2.541,-3.334 -3.958,-7.125 -4.291,-11.292l19.583,0c0.25,2.25 1.292,4.042 3.125,5.458c1.833,1.417 4.125,2.084 6.833,2.084c2.459,-0 4.375,-0.5 5.75,-1.459c1.334,-0.958 2.042,-2.208 2.042,-3.75c0,-1.833 -0.958,-3.208 -2.875,-4.125c-1.917,-0.875 -5.042,-1.875 -9.375,-2.958c-4.625,-1.083 -8.5,-2.208 -11.583,-3.417c-3.084,-1.208 -5.75,-3.083 -8,-5.666c-2.25,-2.584 -3.375,-6.084 -3.375,-10.5c-0,-3.709 1.041,-7.084 3.083,-10.125c2.042,-3.042 5.042,-5.459 9.042,-7.25c3.958,-1.792 8.708,-2.667 14.208,-2.667c8.125,0 14.5,2 19.167,6.042c4.666,4 7.375,9.333 8.041,16l-18.291,-0c-0.292,-2.25 -1.292,-4 -2.959,-5.334c-1.666,-1.291 -3.833,-1.958 -6.541,-1.958c-2.334,0 -4.084,0.458 -5.334,1.333c-1.25,0.875 -1.833,2.125 -1.833,3.667c0,1.833 1,3.25 2.958,4.167c1.959,0.916 5.042,1.833 9.209,2.791c4.791,1.25 8.666,2.459 11.708,3.667c3,1.208 5.667,3.125 7.917,5.792c2.291,2.666 3.458,6.25 3.541,10.708c0,3.792 -1.041,7.167 -3.166,10.125c-2.125,2.958 -5.167,5.292 -9.167,7c-3.958,1.708 -8.583,2.542 -13.833,2.542c-5.625,-0 -10.667,-0.959 -15.042,-2.875l-0.125,-0.084Z" style="fill:#25345f;fill-rule:nonzero;"/><path d="M204.583,43.125c2.5,-5 5.917,-8.875 10.25,-11.583c4.334,-2.709 9.167,-4.042 14.459,-4.042c4.541,0 8.541,0.917 12,2.792c3.416,1.833 6.083,4.291 7.916,7.291l0,-9.166l19.792,-0l0,64.625l-19.792,-0l0,-9.167c-1.916,3 -4.625,5.458 -8.041,7.292c-3.417,1.833 -7.417,2.791 -12,2.791c-5.25,0 -10.042,-1.375 -14.375,-4.125c-4.334,-2.75 -7.75,-6.625 -10.25,-11.708c-2.5,-5.042 -3.75,-10.917 -3.75,-17.542c-0,-6.625 1.25,-12.458 3.75,-17.5l0.041,0.042Zm40.542,5.917c-2.75,-2.875 -6.083,-4.292 -10,-4.292c-3.917,0 -7.292,1.417 -10,4.208c-2.75,2.834 -4.125,6.709 -4.125,11.625c0,4.917 1.375,8.875 4.125,11.75c2.75,2.875 6.083,4.334 10,4.334c3.917,-0 7.292,-1.417 10,-4.292c2.75,-2.875 4.125,-6.75 4.125,-11.708c0,-4.959 -1.375,-8.834 -4.125,-11.709l0,0.084Z" style="fill:#25345f;fill-rule:nonzero;"/><rect x="283.417" y="7.333" width="19.792" height="85.708" style="fill:#25345f;fill-rule:nonzero;"/><path d="M381.417,28.417l-0,64.625l-19.792,-0l0,-8.792c-2,2.875 -4.75,5.167 -8.167,6.875c-3.416,1.75 -7.25,2.625 -11.416,2.625c-4.959,-0 -9.292,-1.083 -13.084,-3.292c-3.791,-2.208 -6.708,-5.375 -8.791,-9.541c-2.084,-4.167 -3.125,-9.084 -3.125,-14.709l-0,-37.791l19.708,-0l0,35.083c0,4.333 1.125,7.667 3.375,10.083c2.25,2.375 5.25,3.584 9.042,3.584c3.791,-0 6.916,-1.209 9.166,-3.584c2.25,-2.375 3.375,-5.75 3.375,-10.083l0,-35.083l19.792,-0l-0.083,-0Z" style="fill:#25345f;fill-rule:nonzero;"/><path d="M395.458,43.125c2.5,-5 5.917,-8.875 10.25,-11.583c4.334,-2.709 9.167,-4.042 14.459,-4.042c4.25,0 8.125,0.875 11.625,2.667c3.5,1.791 6.291,4.166 8.291,7.166l0,-30l19.792,0l0,85.709l-19.792,-0l0,-9.25c-1.833,3.083 -4.5,5.541 -7.916,7.416c-3.417,1.834 -7.417,2.792 -12,2.792c-5.334,0 -10.167,-1.375 -14.459,-4.125c-4.333,-2.75 -7.75,-6.625 -10.25,-11.708c-2.5,-5.042 -3.75,-10.917 -3.75,-17.542c0,-6.625 1.25,-12.458 3.75,-17.5Zm40.542,5.917c-2.75,-2.875 -6.083,-4.292 -10,-4.292c-3.917,0 -7.292,1.417 -10,4.208c-2.75,2.834 -4.125,6.709 -4.125,11.625c0,4.917 1.375,8.875 4.125,11.75c2.75,2.875 6.083,4.334 10,4.334c3.917,-0 7.292,-1.417 10,-4.292c2.75,-2.875 4.125,-6.75 4.125,-11.708c0,-4.959 -1.375,-8.834 -4.125,-11.709l0,0.084Z" style="fill:#25345f;fill-rule:nonzero;"/><path d="M17.458,67.917c0,8.375 2.125,14.416 6.334,18.083c4.208,3.708 10.125,5.542 17.666,5.542l21.584,-0.084l-6.167,-17.583l-12.25,0c-2.292,0 -3.917,-0.458 -4.875,-1.333c-0.958,-0.875 -1.458,-2.375 -1.458,-4.375l-0,-10.292l-20.834,0l0,10.042Z" style="fill:#25345f;fill-rule:nonzero;"/><path d="M0,17.875l0,16.958l17.667,0l-0,17.084l20.416,-0l0,-17.084l18.792,0l0,-16.958l-18.792,0l0,-17.875l-20.416,0l-0,17.875l-17.667,0" style="fill:#ad9bf4;fill-rule:nonzero;"/><path d="M106.917,28.083l-0,34.5c-0,4.25 -1.084,7.542 -3.292,9.917c-2.208,2.375 -5.208,3.542 -9,3.542c-3.792,-0 -6.667,-1.167 -8.875,-3.542c-2.208,-2.333 -3.292,-5.667 -3.292,-9.917l0,-34.5l-19.375,0l0,37.125c0,5.542 1.042,10.375 3.084,14.459c2.041,4.083 4.916,7.25 8.666,9.416c3.709,2.167 8,3.25 12.875,3.25c4.084,0 7.834,-0.875 11.209,-2.583c3.375,-1.708 6.041,-3.958 8.041,-6.792l0,8.667l19.5,0l0,-63.542l-19.541,0Z" style="fill:#25345f;fill-rule:nonzero;"/></svg>