<?xml version="1.0" encoding="UTF-8" standalone="no"?>
<!DOCTYPE svg PUBLIC "-//W3C//DTD SVG 1.1//EN" "http://www.w3.org/Graphics/SVG/1.1/DTD/svg11.dtd">
<svg width="100%" height="100%" viewBox="0 0 700 700" version="1.1" xmlns="http://www.w3.org/2000/svg" xmlns:xlink="http://www.w3.org/1999/xlink" xml:space="preserve" xmlns:serif="http://www.serif.com/" style="fill-rule:evenodd;clip-rule:evenodd;stroke-linejoin:round;stroke-miterlimit:2;">
    <g transform="matrix(1.30002,0,0,1.30002,-104.959,-111.689)">
        <g>
            <g transform="matrix(1,0,0,1,0,72.8541)">
                <path d="M462.19,337.78C462.19,368.85 449.096,399.057 425.319,422.835C395.12,453.03 350.467,470.355 302.809,470.355C264.305,470.355 209.243,454.121 162.329,413.734C156.185,408.445 148.153,405.195 139.411,405.195C120.024,405.195 104.313,420.914 104.313,440.297C104.313,449.875 108.219,458.649 114.442,464.977C119.512,470.141 125.356,474.684 131.126,479.133C196.329,529.348 269.976,533.25 290.996,533.25C362.66,533.25 422.886,510.898 465.166,468.621C509.697,424.094 525.564,367.361 525.564,329.131C525.564,284.752 509.576,243.315 481.697,215.441C460.275,194.019 433.197,182.218 405.459,182.218C376.205,182.218 349.162,193.152 329.311,213.007C323.745,218.569 318.956,224.644 314.971,231.081C325.389,224.425 338.213,220.956 352.698,220.956C413.073,220.956 462.198,273.366 462.198,337.786L462.19,337.78Z" style="fill:white;fill-rule:nonzero;"/>
            </g>
            <g transform="matrix(1,0,0,1,0,72.8541)">
                <path d="M405.45,170.05C436.524,170.05 466.727,183.148 490.509,206.925C520.704,237.12 538.025,281.773 538.025,329.435C538.025,367.943 521.795,423.001 481.404,469.915C476.115,476.063 472.869,484.091 472.869,492.837C472.869,512.22 488.584,527.935 507.967,527.935C517.545,527.935 526.315,524.029 532.647,517.806C537.811,512.736 542.354,506.896 546.803,501.122C597.022,435.919 600.924,362.272 600.924,341.252C600.924,269.592 578.576,209.362 536.295,167.082C491.764,122.551 435.035,106.684 396.805,106.684C352.426,106.684 310.989,122.672 283.105,150.551C261.683,171.981 249.886,199.051 249.886,226.789C249.886,256.043 260.824,283.086 280.675,302.937C286.241,308.503 292.308,313.296 298.749,317.277C292.093,306.859 288.62,294.035 288.62,279.55C288.62,219.167 341.03,170.05 405.45,170.05L405.45,170.05Z" style="fill:white;fill-rule:nonzero;"/>
            </g>
            <g transform="matrix(1,0,0,1,0,72.8541)">
                <path d="M237.73,226.79C237.73,195.716 250.828,165.509 274.605,141.731C304.804,111.536 349.457,94.215 397.115,94.215C435.619,94.215 490.681,110.445 537.595,150.832C543.74,156.121 551.771,159.371 560.513,159.371C579.896,159.371 595.611,143.652 595.611,124.273C595.611,114.691 591.705,105.918 585.482,99.589C580.412,94.425 574.568,89.878 568.794,85.433C503.599,35.218 429.954,31.32 408.934,31.32C337.27,31.32 277.044,53.664 234.764,95.945C190.233,140.472 174.366,197.205 174.366,235.435C174.366,279.814 190.354,321.251 218.229,349.125C239.651,370.547 266.729,382.348 294.467,382.348C323.721,382.348 350.764,371.414 370.619,351.559C376.181,345.997 380.974,339.926 384.955,333.489C374.537,340.145 361.709,343.614 347.228,343.614C286.853,343.618 237.728,291.208 237.728,226.784L237.73,226.79Z" style="fill:white;fill-rule:nonzero;"/>
            </g>
            <g transform="matrix(1,0,0,1,0,72.8541)">
                <path d="M294.47,394.52C263.396,394.52 233.193,381.426 209.411,357.649C179.216,327.454 161.895,282.801 161.895,235.139C161.895,196.627 178.125,141.573 218.516,94.659C223.805,88.511 227.051,80.479 227.051,71.737C227.051,52.35 211.336,36.635 191.953,36.635C182.375,36.635 173.605,40.541 167.273,46.764C162.109,51.834 157.566,57.674 153.117,63.448C102.902,128.651 99,202.298 99,223.318C99,294.982 121.348,355.208 163.625,397.488C208.156,442.023 264.885,457.89 303.115,457.89C347.494,457.89 388.931,441.902 416.815,414.023C438.237,392.601 450.034,365.523 450.034,337.789C450.034,308.531 439.096,281.492 419.245,261.637C413.679,256.071 407.612,251.282 401.171,247.297C407.827,257.715 411.3,270.543 411.3,285.024C411.3,345.403 358.89,394.524 294.47,394.524L294.47,394.52Z" style="fill:white;fill-rule:nonzero;"/>
            </g>
        </g>
    </g>
</svg>
