<?xml version="1.0" encoding="UTF-8" standalone="no"?><!DOCTYPE svg PUBLIC "-//W3C//DTD SVG 1.1//EN" "http://www.w3.org/Graphics/SVG/1.1/DTD/svg11.dtd"><svg width="100%" height="100%" viewBox="0 0 408 95" version="1.1" xmlns="http://www.w3.org/2000/svg" xmlns:xlink="http://www.w3.org/1999/xlink" xml:space="preserve" xmlns:serif="http://www.serif.com/" style="fill-rule:evenodd;clip-rule:evenodd;stroke-miterlimit:3.8637;"><rect id="Artboard2" x="-0" y="0" width="407.667" height="94.208" style="fill:none;"/><clipPath id="_clip1"><rect x="-0" y="0" width="407.667" height="94.208"/></clipPath><g clip-path="url(#_clip1)"><g><path d="M1.87,32.557l40.83,-32.376l42.365,33.79l-0,60.237l-28.223,-0.12c0,-0 -38.905,2.045 -41.282,-34.632c-0,0 -1.684,-27.019 27.953,-29.998c-0,0 22.626,-1.535 26.899,20.369c-0,0 3.82,14.864 -12.247,22.597c0,-0 -13.931,5.236 -22.266,-6.65c0,-0 -5.024,-9.989 1.896,-16.549c6.921,-6.559 13.811,-1.896 13.811,-1.896c0,0 4.393,2.618 3.099,7.372c-0,0 -1.564,3.219 -5.476,2.378c-0,-0 -2.045,-0.843 -3.219,-2.738c-0,0 -4.514,0.963 -2.618,6.318c-0,-0 4.422,8.455 14.652,1.776c0,-0 9.99,-9.056 -0.842,-19.527c-0,-0 -5.236,-6.169 -17.482,-3.792c0,-0 -12.516,2.468 -14.291,17.481c-0,0 -2.618,16.67 13.811,24.402c-0,0 6.077,3.851 21.543,4.543l15.466,-0.361l-0,-46.908l-33.55,-26.658l-32.284,25.696l0,56.685l-8.665,0l0.12,-61.439Z" style="fill:#4fbb00;stroke:#4fbb00;stroke-width:1.1px;"/><g><path d="M127.328,28.576l5.324,15.31c-3.494,-3.827 -9.65,-3.121 -9.65,-3.121c-15.433,2.371 -14.935,14.767 -14.31,18.637c0.624,3.869 3.246,10.566 12.188,13.395c8.944,2.828 15.642,-5.2 15.642,-5.2l-0,14.643c-6.322,5.449 -18.887,3.743 -18.887,3.743c-24.46,-4.119 -23.211,-30.2 -23.211,-30.2c3.951,-32.032 32.904,-27.207 32.904,-27.207Z" style="fill:#24248b;stroke:#24248b;stroke-width:1.1px;"/><path d="M140.889,29.576l31.033,-0l2.872,11.689l-20.635,0l0,9.069l14.893,-0l-0,12.687l-14.393,0l-0,9.651l21.839,-0l-3.203,12.188l-32.406,0l0,-55.284Z" style="fill:#24248b;stroke:#24248b;stroke-width:1.1px;"/><path d="M177.746,84.486l14.934,-56.035l17.889,32.823l18.095,-33.279l14.934,56.366l-13.937,1.747l-4.824,-25.458l-14.519,25.709l-13.436,-25.709l-5.075,25.584l-14.061,-1.748Z" style="fill:#24248b;stroke:#24248b;stroke-width:1.1px;"/><path d="M244.471,83.238l29.66,-54.992l30.451,54.868l-14.061,3.12l-5.699,-12.439l-21.257,0l-5.699,12.314l-13.395,-2.871Zm23.212,-20.009l13.02,-0l-6.572,-11.897l-6.448,11.897Z" style="fill:#24248b;stroke:#24248b;stroke-width:1.1px;"/><path d="M333.424,28.576l5.324,15.31c-3.495,-3.827 -9.65,-3.121 -9.65,-3.121c-15.435,2.371 -14.934,14.767 -14.311,18.637c0.624,3.869 3.244,10.566 12.189,13.395c8.943,2.828 15.64,-5.2 15.64,-5.2l0,14.643c-6.323,5.449 -18.887,3.743 -18.887,3.743c-24.458,-4.119 -23.212,-30.2 -23.212,-30.2c3.953,-32.032 32.907,-27.207 32.907,-27.207Z" style="fill:#24248b;stroke:#24248b;stroke-width:1.1px;"/><path d="M346.431,56.615c-0,-15.944 13.316,-28.87 29.743,-28.87c16.426,0 29.743,12.926 29.743,28.87c-0,15.945 -13.316,28.87 -29.743,28.87c-16.428,-0 -29.743,-12.926 -29.743,-28.87Zm14.056,-0c0,8.41 7.023,15.225 15.687,15.225c8.663,-0 15.686,-6.816 15.686,-15.225c-0,-8.409 -7.024,-15.225 -15.686,-15.225c-8.664,0 -15.687,6.815 -15.687,15.225Z" style="fill:#24248b;stroke:#24248b;stroke-width:1.1px;"/></g></g></g></svg>